<svg xmlns="http://www.w3.org/2000/svg" viewBox="0 0 400 300" width="400" height="300" role="img" aria-label="Game placeholder">
  <defs>
    <linearGradient id="bg" x1="0" y1="0" x2="1" y2="1">
      <stop offset="0" stop-color="#1b1b1b"/>
      <stop offset="1" stop-color="#050505"/>
    </linearGradient>
    <radialGradient id="glow" cx="50%" cy="46%" r="52%">
      <stop offset="0" stop-color="#ffffff" stop-opacity=".20"/>
      <stop offset="1" stop-color="#ffffff" stop-opacity="0"/>
    </radialGradient>
  </defs>
  <rect width="400" height="300" fill="url(#bg)"/>
  <rect width="400" height="300" fill="url(#glow)"/>
  <g fill="none" stroke="#ffffff" stroke-linecap="round" stroke-width="1.2">
    <path d="M0 214C60 184 120 244 200 214S340 184 400 218" stroke-opacity=".22"/>
    <path d="M0 234C70 206 130 262 210 234S350 206 400 238" stroke-opacity=".14"/>
    <path d="M0 254C80 228 140 280 220 254S360 228 400 258" stroke-opacity=".09"/>
  </g>
  <g transform="translate(160 42) scale(3.333)" fill="none" stroke="#ffffff" stroke-width="1.3" stroke-linecap="round" stroke-linejoin="round">
    <line x1="6" x2="10" y1="11" y2="11"/>
    <line x1="8" x2="8" y1="9" y2="13"/>
    <line x1="15" x2="15.01" y1="12" y2="12"/>
    <line x1="18" x2="18.01" y1="10" y2="10"/>
    <path d="M17.32 5H6.68a4 4 0 0 0-3.978 3.59c-.006.052-.01.101-.017.152C2.604 9.416 2 14.456 2 16a3 3 0 0 0 3 3c1 0 1.5-.5 2-1l1.414-1.414A2 2 0 0 1 9.828 16h4.344a2 2 0 0 1 1.414.586L17 18c.5.5 1 1 2 1a3 3 0 0 0 3-3c0-1.545-.604-6.584-.685-7.258-.007-.05-.011-.1-.017-.151A4 4 0 0 0 17.32 5z"/>
  </g>
</svg>
